<?xml version="1.0" encoding="UTF-8" standalone="no"?>
<!DOCTYPE svg PUBLIC "-//W3C//DTD SVG 1.1//EN" "http://www.w3.org/Graphics/SVG/1.1/DTD/svg11.dtd">
<svg width="100%" height="100%" viewBox="0 0 1280 720" version="1.1" xmlns="http://www.w3.org/2000/svg" xmlns:xlink="http://www.w3.org/1999/xlink" xml:space="preserve" xmlns:serif="http://www.serif.com/" style="fill-rule:evenodd;clip-rule:evenodd;stroke-linecap:round;stroke-linejoin:round;stroke-miterlimit:1.5;">
    <path d="M110,460L90,400L94,360L95,340L95,322.205L96.665,296.677L100,270L90,200L110,150L150,120L190,100L260,80L480,80L530,90L580,80L640,70L710,90L760,90L790,110L850,110L920,100L1020,80L1060,90L1120,100L1160,130L1180,170L1180,240L1210,330L1190,360L1180,400L1180,460L1200,490L1210,530L1190,560L1150,640L1130,660L1090,670L1050,660L1010,640L960,620L900,650L850,660L810,660L780,650L740,600L730,560L750,530L780,510L830,510L880,520L910,510L950,480L980,450L990,420L1000,380L1010,330L990,290L940,260L910,250L740,250L700,230L600,220L570,230L530,240L480,240L420,220L340,230L310,280L280,310L280,360L370,390L430,380L470,370L520,360L540,370L560,390L590,430L620,520L620,570L600,650L570,670L530,680L470,680L420,670L370,670L280,660L240,650L220,630L190,590L160,560L130,510L110,460Z" style="fill:none;stroke:black;stroke-width:1px;"/>
</svg>
