<?xml version="1.0" encoding="UTF-8" standalone="no"?>
<!DOCTYPE svg PUBLIC "-//W3C//DTD SVG 1.1//EN" "http://www.w3.org/Graphics/SVG/1.1/DTD/svg11.dtd">
<svg width="100%" height="100%" viewBox="0 0 1280 800" version="1.1" xmlns="http://www.w3.org/2000/svg" xmlns:xlink="http://www.w3.org/1999/xlink" xml:space="preserve" xmlns:serif="http://www.serif.com/" style="fill-rule:evenodd;clip-rule:evenodd;stroke-linejoin:round;stroke-miterlimit:2;">
    <path d="M769.289,80L782.991,66.298L861.886,40L973.553,40L1043.55,50L1110.26,50L1216.06,95.34L1230.35,209.655L1220.39,299.213L1230.71,371.407L1219.3,428.445L1209.41,497.647L1200,554.138L1200,757.715L1092.93,788.305L1041.22,801.234L977.142,788.419L932.991,773.702L892.991,733.702L830.181,712.765L780.469,650.625L731.459,585.279L770.557,507.082L825.29,466.032L879.499,444.349L930.382,418.907L950,399.289L950,390.711L926.43,367.14L876.447,360L713.113,360L633.113,370L585.489,370L495.489,390L413.113,390L340.028,399.136L320.236,404.79L325.148,424.438L346.959,446.248L386.529,493.732L435.636,501.916L505.145,536.671L577.09,584.634L623.53,662.034L602.492,746.188L500.263,790L423.845,790L391.999,782.038L364.03,791.361L299.412,780.592L230,790.508L148.466,778.86L116.01,768.041L45.257,750.353L30,643.553L30,603.845L40,563.845L40,463.845L50,423.845L50,393.845L58.461,360L48.461,320L60,273.845L60,211.886L73.69,170.818L88.907,140.382L130.382,98.907L188.197,70L233.113,70L313.113,80L769.289,80ZM171.093,199.618L166.31,209.182L160,228.114L160,286.155L151.539,320L161.539,360L150,406.155L150,436.155L140,476.155L140,576.155L130,616.155L130,636.447L134.743,669.647L143.99,671.959L171.534,681.14L230,689.492L300.588,679.408L355.97,688.639L388.001,677.962L436.155,690L479.737,690L514.7,675.016L502.91,655.366L454.855,623.329L404.364,598.084L333.471,586.268L273.041,513.752L234.852,475.562L199.764,335.21L319.972,300.864L406.887,290L484.511,290L574.511,270L626.887,270L706.887,260L883.553,260L973.57,272.86L1050,349.289L1050,440.711L989.618,501.093L920.501,535.651L874.71,553.968L849.443,572.918L848.541,574.721L859.531,589.375L889.819,627.235L947.009,646.298L987.009,686.298L1002.86,691.581L1038.78,698.766L1067.07,691.695L1100,682.285L1100,545.862L1110.59,482.353L1120.7,411.555L1129.29,368.593L1119.61,300.787L1129.65,210.345L1123.94,164.66L1089.74,150L1036.45,150L966.447,140L878.114,140L837.009,153.702L810.711,180L306.887,180L226.887,170L211.803,170L189.618,181.093L171.093,199.618Z"/>
</svg>
